# xmcd
#
# Track frame offsets:
#	150
#	13289
#	31068
#	49308
#	63355
#	79548
#	96780
#	108996
#	128734
#	143072
#	157306
#	175611
#	189200
#	204480
#	217351
#	234569
#	250502
#	266149
#	281051
#
# Disc length: 3969 seconds
# Revision: 0
# Processed by: cddbd v1.5.2PL0 Copyright (c) Steve Scherf et al.
# Submitted via: dBpowerAMP V12.0
#
DISCID=100f7f13
DTITLE=Various Artist - Country Radio August 2008
DYEAR=2008
DGENRE=Country
TTITLE0=Johnny Reid - Out Of The Blue
TTITLE1=Paul Brandt - Risk
TTITLE2=Aaron Pritchett - Let's Get Rowdy 
TTITLE3=Jaydee Bixby - Old Fashioned Girl
TTITLE4=Toby Keith - She Never Cried In Front Of Me
TTITLE5=Doc Walker - That's All
TTITLE6=Chris Cummings - Hey What You Know
TTITLE7=Hayes Carll - Bad Liver and A Broken Heart
TTITLE8=Lee Ann Womack - Last Call
TTITLE9=Gretchen Wilson - Don't Do Me No Good
TTITLE10=Steve Holy - Might Have Been
TTITLE11=Lady Antebellum - Lookin For A Good Time
TTITLE12=Ashton Sheperd - Sounds So Good
TTITLE13=George Strait - Troubadour
TTITLE14=Little Big Town - Fine Line
TTITLE15=Phil Vassar - I Would
TTITLE16=Jypsi - I Don't Love You Like That
TTITLE17=Codie Prevost - Good Livin
TTITLE18=Randy Travis - Faith In You
EXTD=
EXTT0=
EXTT1=
EXTT2=
EXTT3=
EXTT4=
EXTT5=
EXTT6=
EXTT7=
EXTT8=
EXTT9=
EXTT10=
EXTT11=
EXTT12=
EXTT13=
EXTT14=
EXTT15=
EXTT16=
EXTT17=
EXTT18=
PLAYORDER=
